# xmcd
#
# Track frame offsets:
#	150
#	17612
#	34847
#	50800
#	66852
#	78180
#	93305
#	111062
#	129790
#	142837
#	158600
#	177500
#	192037
#	209215
#	225722
#	241210
#
# Disc length: 3433
#
# Revision: 2
# Processed by: cddbd v1.5.1PL0 Copyright (c) Steve Scherf et al.
# Submitted via: EasyCDDAExtractor 5.1.0
# Normalized: r1:DSETVAR1
#
DISCID=cf0d6710
DTITLE=Various Artist - The Very Best Of Country
DYEAR=2002
DGENRE=Country
TTITLE0=Toby Keith - Me Too
TTITLE1=Chely Wright - Shut Up And Drive
TTITLE2=Travis Tritt - Can I Trust You With My Heart
TTITLE3=Alabama - Forever's As Far As I'll Go
TTITLE4=Tracy Byrd - Holdin' Heaven
TTITLE5=Kathy Mattea - 18 Wheels And A Dozen Roses
TTITLE6=David Lee Murphy - Dust On The Bottle
TTITLE7=Mark Chesnutt - Almost Goodbye
TTITLE8=Sammy Kershaw - She Don't Know She's Beautiful
TTITLE9=Steve Wariner - Where Did I Go Wrong
TTITLE10=Patty Loveless - Don't Toss Us Away
TTITLE11=Marty Stuart - Tempted
TTITLE12=The Mavericks - What A Cryin' Shame
TTITLE13=Waylon Jennings - Rose In Paradise
TTITLE14=Billy Ray Cyrus - She's Not Crying Anymore
TTITLE15=George Jones and Alan Jackson - A Good Year For The Roses
EXTD=
EXTT0=
EXTT1=
EXTT2=
EXTT3=
EXTT4=
EXTT5=
EXTT6=
EXTT7=
EXTT8=
EXTT9=
EXTT10=
EXTT11=
EXTT12=
EXTT13=
EXTT14=
EXTT15=
PLAYORDER=
